<svg xmlns="http://www.w3.org/2000/svg" version="1.1" xmlns:xlink="http://www.w3.org/1999/xlink" viewBox="0 0 9.382984301772593 5.141692368566876"><g transform="matrix(0.8094499244231894,0,0,0.8094499244231894,4.889674719988011,1.8123207782305224)"><g transform="matrix(1,0,0,1,0,0)" clip-path="url(#SvgjsClipPath4936)"><g clip-path="url(#SvgjsClipPath493476470efc-a1ec-46d8-a76a-1633602b9f43)"><path d=" M -0.3999153757825473 -0.0861885374526129 C -0.3995724595740562 -0.33612917698494926 -0.4988553573706529 -0.575900420651414 -0.6757903246822701 -0.7524350014671943 C -1.0140876084328379 -0.6240352330412844 -1.2647478233511888 -0.3335927341402065 -1.3422906613492267 0.019845607017128897 L -1.3422906613492267 0.8561867481140664 C -0.8218311625133059 0.856186748114065 -0.3999153757825473 0.43427096138330223 -0.3999153757825473 -0.0861885374526129 Z" fill="#c08c46" transform="matrix(1,0,0,1,0,0)" fill-rule="evenodd"></path></g><g clip-path="url(#SvgjsClipPath493476470efc-a1ec-46d8-a76a-1633602b9f43)"><path d=" M -1.3422906613492267 -1.0285638230192935 C -1.5922310075574648 -1.028586270398854 -1.83194089144699 -0.9293077963678593 -2.008675405855727 -0.752573281959122 C -2.1854099202644757 -0.5758387675503845 -2.2846883942954563 -0.33612888366086224 -2.2846659469159056 -0.0861885374526129 L -2.2846659469159056 0.8561867481140664 C -1.8223574796916084 0.8113904436449448 -1.4416934695460242 0.473557971278848 -1.3422906613492267 0.01984560701713045 Z" fill="#3f170e" transform="matrix(1,0,0,1,0,0)" fill-rule="evenodd"></path></g><g clip-path="url(#SvgjsClipPath493476470efc-a1ec-46d8-a76a-1633602b9f43)"><path d=" M -0.3999153757825473 1.96027891323516 C -0.3995949846206135 2.2101902351372997 -0.4988761624464506 2.4499268706725292 -0.6757903246823034 2.626440753032332 C -1.0140751945130706 2.498070058776392 -1.2647364569005024 2.2076581721225983 -1.3422906613492267 1.8542447687654164 L -1.3422906613492267 1.0179036276684792 C -0.8218311625133059 1.0179036276684805 -0.3999153757825473 1.4398194143992444 -0.3999153757825473 1.96027891323516 Z" fill="#3f170e" transform="matrix(1,0,0,1,0,0)" fill-rule="evenodd"></path></g><g clip-path="url(#SvgjsClipPath493476470efc-a1ec-46d8-a76a-1633602b9f43)"><path d=" M -1.3422906613492267 2.9026541988018373 C -1.862750160185147 2.9026541988018373 -2.2846659469159056 2.4807384120710747 -2.2846659469159056 1.96027891323516 L -2.2846659469159056 1.0179036276684779 C -1.8223574796916084 1.0626999321376005 -1.4416934695460242 1.4005324045036975 -1.3422906613492267 1.854244768765415 Z" fill="#d56a34" transform="matrix(1,0,0,1,0,0)" fill-rule="evenodd"></path></g><g clip-path="url(#SvgjsClipPath493476470efc-a1ec-46d8-a76a-1633602b9f43)"><path d=" M -4.331133397603678 -0.0861885374526129 C -4.3314763138121695 -0.33612917698494926 -4.232193416015573 -0.575900420651414 -4.055258448703956 -0.7524350014671943 C -3.7169428665803244 -0.6240613723653226 -3.466272415618439 -0.3336070128581736 -3.388758112036999 0.019845607017128897 L -3.388758112036999 0.8561867481140664 C -3.9092176108729197 0.856186748114065 -4.331133397603678 0.43427096138330223 -4.331133397603678 -0.0861885374526129 Z" fill="#efca74" transform="matrix(1,0,0,1,0,0)" fill-rule="evenodd"></path></g><g clip-path="url(#SvgjsClipPath493476470efc-a1ec-46d8-a76a-1633602b9f43)"><path d=" M -3.388758112036999 -1.0285638230192935 C -3.138817765828761 -1.028586270398854 -2.8991078819392357 -0.9293077963678593 -2.7223733675304986 -0.752573281959122 C -2.54563885312175 -0.5758387675503845 -2.4463603790907693 -0.33612888366086224 -2.4463828264703196 -0.0861885374526129 L -2.4463828264703196 0.8561867481140664 C -2.908691293694617 0.8113904436449448 -3.2893553038402015 0.473557971278848 -3.388758112036999 0.01984560701713045 Z" fill="#d56a34" transform="matrix(1,0,0,1,0,0)" fill-rule="evenodd"></path></g><g clip-path="url(#SvgjsClipPath493476470efc-a1ec-46d8-a76a-1633602b9f43)"><path d=" M -4.331133397603678 1.96027891323516 C -4.331453788765612 2.2101902351372997 -4.232172610939775 2.4499268706725292 -4.055258448703922 2.626440753032332 C -3.7169552812920528 2.4980962002285105 -3.466283781627693 2.207672452839316 -3.388758112036999 1.8542447687654164 L -3.388758112036999 1.0179036276684792 C -3.9092176108729197 1.0179036276684805 -4.331133397603678 1.4398194143992444 -4.331133397603678 1.96027891323516 Z" fill="#c08c46" transform="matrix(1,0,0,1,0,0)" fill-rule="evenodd"></path></g><g clip-path="url(#SvgjsClipPath493476470efc-a1ec-46d8-a76a-1633602b9f43)"><path d=" M -3.388758112036999 2.9026541988018373 C -2.8682986132010786 2.9026541988018373 -2.4463828264703196 2.4807384120710747 -2.4463828264703196 1.96027891323516 L -2.4463828264703196 1.0179036276684779 C -2.908691293694617 1.0626999321376005 -3.2893553038402015 1.4005324045036975 -3.388758112036999 1.854244768765415 Z" fill="#efca74" transform="matrix(1,0,0,1,0,0)" fill-rule="evenodd"></path></g></g><g><path d=" M 0.2985 0.20850000000000002 C 0.312 0.17400000000000004 0.3225 0.15750000000000008 0.333 0.13050000000000006 C 0.339 0.1110000000000001 0.36 0.058499999999999996 0.3585 0.0465000000000001 L 0.354 0.030000000000000027 C 0.354 0.013500000000000068 0.3225 0.0030000000000001137 0.309 0.0030000000000001137 L 0.276 0.018000000000000016 L 0.258 0.039000000000000035 C 0.1545 0.1815 -0.039 0.651 -0.039 0.8265 C -0.039 0.9165000000000001 0.021 1.0095 0.123 1.0095 C 0.21 1.0095 0.222 1.0065000000000002 0.3 0.9660000000000001 C 0.312 0.9615 0.3165 0.9540000000000001 0.327 0.9480000000000001 L 0.3315 0.9435 C 0.34800000000000003 0.9315000000000001 0.381 0.921 0.399 0.9165000000000001 C 0.4035 0.9105000000000001 0.426 0.8925000000000001 0.4335 0.8895000000000001 C 0.435 0.8865000000000001 0.441 0.885 0.4425 0.8835000000000001 L 0.441 0.8805000000000001 C 0.441 0.8745 0.4425 0.8715 0.447 0.8685 C 0.444 0.8625 0.47400000000000003 0.8490000000000001 0.483 0.8460000000000001 C 0.47850000000000004 0.8445 0.48 0.8400000000000001 0.483 0.8385 C 0.3585 0.8820000000000001 0.1905 0.9480000000000001 0.11850000000000001 0.9480000000000001 C 0.1155 0.9480000000000001 0.1125 0.9480000000000001 0.1095 0.9480000000000001 C 0.069 0.9435 0.069 0.8955000000000001 0.069 0.867 C 0.069 0.7005000000000001 0.246 0.2835000000000001 0.3135 0.14400000000000002 C 0.3165 0.15450000000000008 0.3 0.19200000000000006 0.2985 0.20850000000000002 M 0.9165336914062501 0.6225 C 0.90003369140625 0.6315000000000001 0.86703369140625 0.687 0.85503369140625 0.7050000000000001 C 0.8130336914062499 0.7665000000000001 0.67653369140625 0.93 0.60603369140625 0.93 C 0.52203369140625 0.93 0.5880336914062501 0.7290000000000001 0.60903369140625 0.6915 C 0.61203369140625 0.6855 0.78453369140625 0.684 0.78453369140625 0.5475000000000001 C 0.78453369140625 0.5130000000000001 0.76953369140625 0.5025000000000001 0.73953369140625 0.49350000000000005 C 0.73053369140625 0.4890000000000001 0.68403369140625 0.47250000000000003 0.67353369140625 0.47250000000000003 C 0.66753369140625 0.47250000000000003 0.64803369140625 0.47250000000000003 0.64653369140625 0.4770000000000001 L 0.64503369140625 0.4800000000000001 C 0.56553369140625 0.5415000000000001 0.47703369140625 0.7155 0.47103369140625 0.8205 C 0.46653369140625 0.9135000000000001 0.51903369140625 0.9720000000000001 0.61353369140625 0.9855 C 0.61653369140625 0.9855 0.61953369140625 0.9870000000000001 0.62403369140625 0.9870000000000001 C 0.7110336914062501 0.9870000000000001 0.8580336914062501 0.8235000000000001 0.89703369140625 0.7245 C 0.90153369140625 0.7095 0.9165336914062501 0.6930000000000001 0.91803369140625 0.6735 L 0.91503369140625 0.669 C 0.91503369140625 0.669 0.9105336914062501 0.6675 0.9105336914062501 0.666 C 0.9105336914062501 0.6585000000000001 0.91803369140625 0.6480000000000001 0.91803369140625 0.639 L 0.91503369140625 0.633 C 0.9165336914062501 0.6300000000000001 0.9165336914062501 0.6255000000000001 0.9165336914062501 0.6225 M 0.7080336914062499 0.534 C 0.73803369140625 0.5655000000000001 0.69903369140625 0.6195 0.63603369140625 0.633 C 0.65403369140625 0.6015 0.69453369140625 0.5415000000000001 0.7080336914062499 0.534 M 1.139990478515625 0.666 L 1.141490478515625 0.666 C 1.126490478515625 0.7200000000000001 1.1144904785156249 0.7785000000000001 1.1144904785156249 0.8355 C 1.1144904785156249 0.885 1.1324904785156251 0.9390000000000001 1.183490478515625 0.9585 C 1.186490478515625 0.9615 1.213490478515625 0.9675 1.220990478515625 0.9675 C 1.300490478515625 0.9675 1.412990478515625 0.7875000000000001 1.462490478515625 0.6975 L 1.4654904785156249 0.669 C 1.454990478515625 0.666 1.468490478515625 0.651 1.456490478515625 0.6525000000000001 C 1.454990478515625 0.651 1.468490478515625 0.6195 1.4654904785156249 0.615 C 1.432490478515625 0.6615 1.264490478515625 0.9135000000000001 1.219490478515625 0.9135000000000001 C 1.2149904785156251 0.9135000000000001 1.210490478515625 0.8805000000000001 1.210490478515625 0.8745 C 1.210490478515625 0.774 1.237490478515625 0.684 1.265990478515625 0.5880000000000001 C 1.276490478515625 0.5505 1.295990478515625 0.5115000000000001 1.295990478515625 0.47250000000000003 C 1.295990478515625 0.44100000000000006 1.240490478515625 0.43200000000000005 1.2149904785156251 0.43200000000000005 C 1.210490478515625 0.43200000000000005 1.205990478515625 0.43500000000000005 1.2029904785156251 0.4395 L 1.205990478515625 0.4455 C 1.184990478515625 0.47250000000000003 1.166990478515625 0.49950000000000006 1.150490478515625 0.522 C 1.130990478515625 0.4950000000000001 1.081490478515625 0.4800000000000001 1.049990478515625 0.4800000000000001 C 0.946490478515625 0.4800000000000001 0.827990478515625 0.7140000000000001 0.835490478515625 0.81 C 0.838490478515625 0.8625 0.872990478515625 0.9255000000000001 0.932990478515625 0.9255000000000001 C 0.988490478515625 0.9255000000000001 1.102490478515625 0.7245 1.139990478515625 0.666 M 0.931490478515625 0.8505 L 0.928490478515625 0.8400000000000001 C 0.928490478515625 0.7575000000000001 0.995990478515625 0.6225 1.057490478515625 0.5655000000000001 C 1.0619904785156251 0.5595000000000001 1.075490478515625 0.5505 1.084490478515625 0.5505 C 1.094990478515625 0.5505 1.111490478515625 0.5625 1.1144904785156249 0.5700000000000001 C 1.057490478515625 0.657 0.989990478515625 0.7635000000000001 0.931490478515625 0.8505 M 1.5089970703125 0.378 C 1.5089970703125 0.38250000000000006 1.5119970703125 0.39 1.5119970703125 0.396 C 1.5119970703125 0.41700000000000004 1.4774970703125 0.5205000000000001 1.4684970703125 0.552 C 1.4279970703125 0.684 1.3469970703125 0.9495 1.3469970703125 1.0875000000000001 C 1.3469970703125 1.1295000000000002 1.3484970703125 1.2135 1.3919970703125 1.227 C 1.3964970703125 1.224 1.4069970703125 1.218 1.4069970703125 1.2135 L 1.4114970703125 1.2105000000000001 C 1.4189970703125 1.2105000000000001 1.4309970703125 1.2225000000000001 1.4384970703125 1.2225000000000001 C 1.4339970703125 1.215 1.4309970703125 1.2045000000000001 1.4294970703125 1.1925000000000001 C 1.4294970703125 1.1895 1.4294970703125 1.1865 1.4309970703125 1.1835 C 1.4309970703125 1.137 1.4684970703125 0.9405000000000001 1.4819970703125 0.894 C 1.5044970703125 0.8220000000000001 1.5449970703125 0.7395 1.5824970703125 0.6705000000000001 C 1.5899970703125 0.6645000000000001 1.5929970703125 0.6555000000000001 1.5959970703125 0.6435000000000001 L 1.6004970703125 0.6420000000000001 C 1.6004970703125 0.6375000000000001 1.6124970703125001 0.6240000000000001 1.6169970703125 0.615 C 1.6214970703125 0.6135 1.6229970703125 0.603 1.6274970703125 0.5985 C 1.6319970703125 0.5955 1.6349970703125 0.5895000000000001 1.6379970703125 0.5850000000000001 C 1.6454970703125 0.5805 1.6484970703125 0.5775000000000001 1.6499970703125 0.5715000000000001 C 1.6664970703125 0.5505 1.6859970703125 0.5325 1.7084970703125 0.516 C 1.7159970703125 0.5235000000000001 1.7174970703125 0.5475000000000001 1.7174970703125 0.558 C 1.7174970703125 0.6075 1.7084970703125 0.657 1.6919970703125 0.7020000000000001 C 1.6409970703125 0.732 1.5569970703125 0.8265 1.5284970703125 0.8805000000000001 C 1.5194970703125 0.8925000000000001 1.5029970703125 0.9135000000000001 1.4954970703125 0.9345000000000001 C 1.4924970703125 0.9405000000000001 1.4924970703125 0.9435 1.4879970703125 0.9450000000000001 L 1.4954970703125 0.9555 C 1.5059970703125 0.9810000000000001 1.5404970703125 0.9945 1.5674970703125 1.0035 C 1.5734970703125 1.008 1.5779970703125 1.0095 1.5854970703125 1.0095 C 1.5929970703125 1.0095 1.6004970703125 1.0065000000000002 1.6079970703125 1.0005000000000002 C 1.6859970703125 0.9450000000000001 1.7534970703125001 0.8310000000000001 1.7819970703124999 0.7275 C 1.8299970703125 0.7005000000000001 1.8884970703125 0.6930000000000001 1.9499970703125 0.6765000000000001 C 1.9454970703124999 0.6705000000000001 1.9454970703124999 0.6615 1.9409970703125001 0.657 C 1.9199970703125 0.6420000000000001 1.8929970703125 0.6405000000000001 1.8719970703125 0.6405000000000001 C 1.8614970703125 0.6405000000000001 1.8074970703125 0.6480000000000001 1.7939970703124999 0.6525000000000001 C 1.7969970703125 0.6375000000000001 1.7999970703125001 0.5985 1.7999970703125001 0.5880000000000001 C 1.7999970703125001 0.5805 1.7969970703125 0.5415000000000001 1.7924970703125 0.5355000000000001 C 1.7984970703125 0.5175000000000001 1.7489970703125 0.4710000000000001 1.7159970703125 0.4710000000000001 C 1.6559970703125 0.4710000000000001 1.5899970703125 0.531 1.5539970703125001 0.5955 L 1.5509970703125 0.5955 C 1.5689970703125 0.5235000000000001 1.5869970703125 0.48450000000000004 1.5929970703125 0.4155000000000001 C 1.5899970703125 0.4035000000000001 1.5659970703125001 0.37350000000000005 1.5404970703125 0.37350000000000005 C 1.5419970703125 0.37350000000000005 1.5284970703125 0.378 1.5119970703125 0.378 M 1.5719970703125 0.9405000000000001 C 1.5989970703125 0.8985000000000001 1.6184970703125 0.8580000000000001 1.6544970703125 0.8220000000000001 L 1.6559970703125 0.8205 C 1.6544970703125 0.8280000000000001 1.6349970703125 0.8595 1.5959970703125 0.9135000000000001 C 1.5914970703125 0.9225000000000001 1.5809970703125 0.9315000000000001 1.5734970703125 0.9405000000000001 M 2.48097216796875 0.6645000000000001 C 2.54247216796875 0.6300000000000001 2.57697216796875 0.6225 2.64297216796875 0.6075 L 2.65797216796875 0.5760000000000001 L 2.64597216796875 0.5700000000000001 L 2.64597216796875 0.5685 L 2.64747216796875 0.5655000000000001 L 2.65497216796875 0.5655000000000001 L 2.62947216796875 0.561 C 2.58897216796875 0.561 2.55147216796875 0.5655000000000001 2.51247216796875 0.5760000000000001 C 2.53197216796875 0.5085000000000001 2.56047216796875 0.3345 2.56047216796875 0.2985000000000001 C 2.56047216796875 0.2775000000000001 2.55597216796875 0.2370000000000001 2.54847216796875 0.2340000000000001 C 2.53047216796875 0.2250000000000001 2.49897216796875 0.21600000000000008 2.47797216796875 0.19800000000000006 C 2.47797216796875 0.1995 2.47497216796875 0.1995 2.47197216796875 0.1995 C 2.46747216796875 0.1995 2.4629721679687497 0.1995 2.45997216796875 0.1995 C 2.38797216796875 0.1995 2.16297216796875 0.49050000000000005 2.11497216796875 0.558 C 2.08197216796875 0.5985 2.00697216796875 0.7050000000000001 1.96497216796875 0.7245 C 1.95747216796875 0.7125000000000001 1.95597216796875 0.7005000000000001 1.95597216796875 0.6855 C 1.95597216796875 0.4800000000000001 2.15097216796875 0.15150000000000008 2.24397216796875 0.06300000000000006 L 2.24697216796875 0.06300000000000006 L 2.27097216796875 0.04800000000000004 C 2.27247216796875 0.04050000000000009 2.27247216796875 0.034500000000000086 2.27247216796875 0.02850000000000008 L 2.26797216796875 0.034500000000000086 C 2.26197216796875 0.02100000000000002 2.20047216796875 0 2.18697216796875 0 C 2.16597216796875 0 2.13447216796875 0.034500000000000086 2.11947216796875 0.04800000000000004 C 2.02047216796875 0.14700000000000002 1.84647216796875 0.45300000000000007 1.84647216796875 0.6555000000000001 C 1.84647216796875 0.7305 1.90197216796875 0.7995000000000001 1.97247216796875 0.7995000000000001 C 1.98447216796875 0.7995000000000001 2.00247216796875 0.7905000000000001 2.01597216796875 0.7845000000000001 C 2.05797216796875 0.7575000000000001 2.18847216796875 0.5925 2.23497216796875 0.5355000000000001 C 2.29947216796875 0.4545 2.38797216796875 0.3315 2.44197216796875 0.2895000000000001 C 2.44497216796875 0.28800000000000003 2.45997216796875 0.2805000000000001 2.46147216796875 0.2805000000000001 C 2.45697216796875 0.36450000000000005 2.41797216796875 0.516 2.38497216796875 0.621 C 2.29647216796875 0.687 2.19297216796875 0.7635000000000001 2.10747216796875 0.8865000000000001 C 2.10297216796875 0.894 2.09997216796875 0.8985000000000001 2.09397216796875 0.903 L 2.09397216796875 0.9045000000000001 C 2.06997216796875 0.9285000000000001 1.99947216796875 1.0530000000000002 1.99347216796875 1.116 C 2.01897216796875 1.1460000000000001 2.02047216796875 1.1535000000000002 2.05347216796875 1.1745 C 2.05797216796875 1.1775 2.06247216796875 1.1805 2.06397216796875 1.1865 C 2.07447216796875 1.1880000000000002 2.10747216796875 1.1925000000000001 2.11797216796875 1.1925000000000001 L 2.10597216796875 1.1985000000000001 L 2.11197216796875 1.1985000000000001 C 2.11947216796875 1.1985000000000001 2.12547216796875 1.197 2.12997216796875 1.1925000000000001 L 2.13747216796875 1.191 L 2.13447216796875 1.197 C 2.27697216796875 1.1655 2.43447216796875 0.8445 2.48097216796875 0.6645000000000001 M 2.11797216796875 1.0995000000000001 C 2.11197216796875 1.1055000000000001 2.09247216796875 1.116 2.08497216796875 1.116 L 2.07297216796875 1.116 L 2.07297216796875 1.1145 C 2.09397216796875 1.0125 2.24997216796875 0.8190000000000001 2.33997216796875 0.75 L 2.34147216796875 0.7470000000000001 L 2.34297216796875 0.7485 C 2.30697216796875 0.8505 2.20947216796875 1.0425 2.11797216796875 1.0995000000000001 M 2.977477294921875 0.6225 C 2.960977294921875 0.6315000000000001 2.927977294921875 0.687 2.915977294921875 0.7050000000000001 C 2.873977294921875 0.7665000000000001 2.737477294921875 0.93 2.666977294921875 0.93 C 2.582977294921875 0.93 2.648977294921875 0.7290000000000001 2.669977294921875 0.6915 C 2.672977294921875 0.6855 2.845477294921875 0.684 2.845477294921875 0.5475000000000001 C 2.845477294921875 0.5130000000000001 2.830477294921875 0.5025000000000001 2.800477294921875 0.49350000000000005 C 2.791477294921875 0.4890000000000001 2.744977294921875 0.47250000000000003 2.734477294921875 0.47250000000000003 C 2.728477294921875 0.47250000000000003 2.708977294921875 0.47250000000000003 2.707477294921875 0.4770000000000001 L 2.705977294921875 0.4800000000000001 C 2.626477294921875 0.5415000000000001 2.537977294921875 0.7155 2.531977294921875 0.8205 C 2.527477294921875 0.9135000000000001 2.579977294921875 0.9720000000000001 2.674477294921875 0.9855 C 2.677477294921875 0.9855 2.680477294921875 0.9870000000000001 2.684977294921875 0.9870000000000001 C 2.771977294921875 0.9870000000000001 2.918977294921875 0.8235000000000001 2.957977294921875 0.7245 C 2.962477294921875 0.7095 2.977477294921875 0.6930000000000001 2.978977294921875 0.6735 L 2.975977294921875 0.669 C 2.975977294921875 0.669 2.971477294921875 0.6675 2.971477294921875 0.666 C 2.971477294921875 0.6585000000000001 2.978977294921875 0.6480000000000001 2.978977294921875 0.639 L 2.975977294921875 0.633 C 2.977477294921875 0.6300000000000001 2.977477294921875 0.6255000000000001 2.977477294921875 0.6225 M 2.768977294921875 0.534 C 2.798977294921875 0.5655000000000001 2.759977294921875 0.6195 2.696977294921875 0.633 C 2.714977294921875 0.6015 2.755477294921875 0.5415000000000001 2.768977294921875 0.534 M 3.20093408203125 0.666 L 3.20243408203125 0.666 C 3.18743408203125 0.7200000000000001 3.17543408203125 0.7785000000000001 3.17543408203125 0.8355 C 3.17543408203125 0.885 3.19343408203125 0.9390000000000001 3.24443408203125 0.9585 C 3.24743408203125 0.9615 3.27443408203125 0.9675 3.28193408203125 0.9675 C 3.36143408203125 0.9675 3.47393408203125 0.7875000000000001 3.52343408203125 0.6975 L 3.52643408203125 0.669 C 3.51593408203125 0.666 3.52943408203125 0.651 3.51743408203125 0.6525000000000001 C 3.51593408203125 0.651 3.52943408203125 0.6195 3.52643408203125 0.615 C 3.49343408203125 0.6615 3.32543408203125 0.9135000000000001 3.28043408203125 0.9135000000000001 C 3.27593408203125 0.9135000000000001 3.27143408203125 0.8805000000000001 3.27143408203125 0.8745 C 3.27143408203125 0.774 3.29843408203125 0.684 3.32693408203125 0.5880000000000001 C 3.3374340820312502 0.5505 3.35693408203125 0.5115000000000001 3.35693408203125 0.47250000000000003 C 3.35693408203125 0.44100000000000006 3.3014340820312498 0.43200000000000005 3.27593408203125 0.43200000000000005 C 3.27143408203125 0.43200000000000005 3.2669340820312502 0.43500000000000005 3.26393408203125 0.4395 L 3.2669340820312502 0.4455 C 3.24593408203125 0.47250000000000003 3.22793408203125 0.49950000000000006 3.21143408203125 0.522 C 3.19193408203125 0.4950000000000001 3.14243408203125 0.4800000000000001 3.11093408203125 0.4800000000000001 C 3.00743408203125 0.4800000000000001 2.88893408203125 0.7140000000000001 2.89643408203125 0.81 C 2.89943408203125 0.8625 2.93393408203125 0.9255000000000001 2.99393408203125 0.9255000000000001 C 3.04943408203125 0.9255000000000001 3.16343408203125 0.7245 3.20093408203125 0.666 M 2.99243408203125 0.8505 L 2.98943408203125 0.8400000000000001 C 2.98943408203125 0.7575000000000001 3.05693408203125 0.6225 3.11843408203125 0.5655000000000001 C 3.12293408203125 0.5595000000000001 3.13643408203125 0.5505 3.14543408203125 0.5505 C 3.15593408203125 0.5505 3.17243408203125 0.5625 3.17543408203125 0.5700000000000001 C 3.11843408203125 0.657 3.05093408203125 0.7635000000000001 2.99243408203125 0.8505 M 3.859440673828125 0.5685 L 3.859440673828125 0.5655000000000001 C 3.859440673828125 0.5655000000000001 3.862440673828125 0.5415000000000001 3.862440673828125 0.5385 L 3.862440673828125 0.534 C 3.859440673828125 0.5295000000000001 3.8639406738281252 0.5235000000000001 3.860940673828125 0.516 C 3.862440673828125 0.5115000000000001 3.857940673828125 0.498 3.853440673828125 0.49350000000000005 L 3.844440673828125 0.4890000000000001 L 3.835440673828125 0.4890000000000001 C 3.827940673828125 0.48750000000000004 3.823440673828125 0.48450000000000004 3.8174406738281252 0.48450000000000004 C 3.734940673828125 0.48450000000000004 3.661440673828125 0.5895000000000001 3.620940673828125 0.6525000000000001 C 3.608940673828125 0.6735 3.599940673828125 0.6825000000000001 3.590940673828125 0.7005000000000001 C 3.607440673828125 0.6345000000000001 3.647940673828125 0.507 3.647940673828125 0.4575 C 3.647940673828125 0.4455 3.632940673828125 0.43200000000000005 3.605940673828125 0.4275000000000001 C 3.599940673828125 0.42600000000000005 3.592440673828125 0.4245000000000001 3.584940673828125 0.4245000000000001 C 3.580440673828125 0.4245000000000001 3.575940673828125 0.42600000000000005 3.572940673828125 0.4275000000000001 L 3.554940673828125 0.48450000000000004 C 3.518940673828125 0.597 3.458940673828125 0.777 3.458940673828125 0.894 C 3.458940673828125 0.9480000000000001 3.473940673828125 0.9495 3.515940673828125 0.9795 C 3.520440673828125 0.9795 3.521940673828125 0.9840000000000001 3.524940673828125 0.9840000000000001 L 3.529440673828125 0.9825 L 3.533940673828125 0.9840000000000001 C 3.544440673828125 0.9825 3.553440673828125 0.9720000000000001 3.557940673828125 0.9645 C 3.575940673828125 0.9345000000000001 3.581940673828125 0.9 3.593940673828125 0.8640000000000001 C 3.634440673828125 0.75 3.691440673828125 0.6195 3.797940673828125 0.549 C 3.806940673828125 0.5415000000000001 3.826440673828125 0.5325 3.836940673828125 0.5325 C 3.839940673828125 0.5325 3.853440673828125 0.561 3.859440673828125 0.5685" fill="#3f170e" fill-rule="nonzero"></path></g><g><path d=" M 0.0165 1.8521749999999997 C 0.012 1.8526749999999996 0.0085 1.8581749999999997 0.006 1.8631749999999998 C 0.0085 1.8746749999999996 0.02 1.8836749999999998 0.032 1.8831749999999996 C 0.0685 1.8816749999999998 0.091 1.8251749999999998 0.0905 1.7926749999999998 C 0.088 1.7246749999999997 0.0365 1.7076749999999996 0.035500000000000004 1.6676749999999996 C 0.0345 1.6391749999999996 0.0625 1.5971749999999996 0.0935 1.5961749999999997 C 0.0955 1.5971749999999996 0.0975 1.5976749999999997 0.099 1.5976749999999997 C 0.1045 1.5976749999999997 0.109 1.5936749999999997 0.109 1.5881749999999997 C 0.1085 1.5771749999999998 0.0965 1.5686749999999998 0.08600000000000001 1.5686749999999998 C 0.052000000000000005 1.5696749999999997 0.01 1.6286749999999997 0.0105 1.6611749999999996 C 0.013000000000000001 1.7266749999999997 0.064 1.7391749999999997 0.0655 1.7911749999999997 C 0.066 1.8126749999999996 0.0565 1.8571749999999998 0.029500000000000002 1.8581749999999997 C 0.025500000000000002 1.8581749999999997 0.02 1.8576749999999997 0.0165 1.8521749999999997 M 0.172744873046875 1.8526749999999996 C 0.16324487304687502 1.8406749999999996 0.156744873046875 1.8191749999999998 0.153744873046875 1.7971749999999997 C 0.146744873046875 1.7371749999999997 0.156244873046875 1.6641749999999997 0.185244873046875 1.6131749999999996 C 0.18874487304687498 1.6066749999999996 0.192244873046875 1.5991749999999998 0.201244873046875 1.5986749999999996 C 0.206744873046875 1.5986749999999996 0.211744873046875 1.6056749999999997 0.216244873046875 1.6056749999999997 C 0.22324487304687501 1.6046749999999996 0.22824487304687502 1.5996749999999997 0.22724487304687502 1.5936749999999997 C 0.22574487304687502 1.5831749999999998 0.203744873046875 1.5741749999999997 0.195244873046875 1.5746749999999996 C 0.149244873046875 1.5781749999999997 0.130244873046875 1.6886749999999997 0.126744873046875 1.7236749999999996 C 0.12174487304687501 1.7656749999999997 0.126744873046875 1.8026749999999998 0.133744873046875 1.8296749999999997 C 0.139244873046875 1.8526749999999996 0.151744873046875 1.8771749999999996 0.178744873046875 1.8771749999999996 C 0.196744873046875 1.8761749999999997 0.216744873046875 1.8501749999999997 0.205744873046875 1.8391749999999998 C 0.204744873046875 1.8381749999999997 0.202244873046875 1.8341749999999997 0.197744873046875 1.8326749999999996 C 0.19024487304687498 1.8391749999999998 0.183244873046875 1.8546749999999996 0.176244873046875 1.8546749999999996 C 0.175244873046875 1.8546749999999996 0.173744873046875 1.8541749999999997 0.172744873046875 1.8526749999999996 M 0.27698046875 1.6956749999999996 C 0.27748046875 1.6676749999999996 0.28598046875 1.6191749999999998 0.28598046875 1.5861749999999997 C 0.28598046875 1.5781749999999997 0.27298046875 1.5681749999999997 0.26498046875000003 1.5681749999999997 C 0.26148046875 1.5681749999999997 0.25798046875 1.5716749999999997 0.25798046875 1.5751749999999998 C 0.25798046875 1.5791749999999998 0.25898046875 1.5831749999999998 0.25898046875 1.5866749999999996 C 0.25898046875 1.6136749999999997 0.25148046875 1.6841749999999998 0.25048046875 1.7006749999999997 C 0.24798046875000002 1.7011749999999997 0.23948046875 1.7026749999999997 0.23148046875 1.7056749999999996 C 0.22948046875 1.7066749999999997 0.22848046875 1.7086749999999997 0.22848046875 1.7111749999999997 C 0.22848046875 1.7126749999999997 0.22898046875 1.7141749999999998 0.22948046875 1.7161749999999998 C 0.22948046875 1.7181749999999998 0.23148046875 1.7171749999999997 0.23148046875 1.7186749999999997 C 0.23748046875 1.7251749999999997 0.24048046875 1.7251749999999997 0.24798046875000002 1.7251749999999997 C 0.24548046875 1.7576749999999997 0.24198046875 1.7816749999999997 0.24198046875 1.8141749999999996 C 0.24198046875 1.8251749999999998 0.24398046875 1.8361749999999997 0.24398046875 1.8471749999999998 C 0.24398046875 1.8586749999999996 0.24848046875000002 1.8706749999999996 0.26198046875000003 1.8706749999999996 C 0.26548046875 1.8706749999999996 0.27398046875 1.8681749999999997 0.27398046875 1.8631749999999998 C 0.27398046875 1.8611749999999998 0.27348046875 1.8596749999999997 0.27348046875 1.8576749999999997 C 0.26348046875 1.8371749999999998 0.27198046875 1.7506749999999998 0.27498046875 1.7236749999999996 C 0.27548046875 1.7186749999999997 0.27648046875 1.7196749999999996 0.28148046875 1.7181749999999998 C 0.30048046875 1.7141749999999998 0.30748046875 1.7131749999999997 0.32698046875 1.7111749999999997 C 0.32298046874999997 1.7441749999999998 0.32298046874999997 1.7711749999999997 0.32048046875 1.8036749999999997 C 0.31898046875 1.8251749999999998 0.31848046875 1.8441749999999997 0.31848046875 1.8656749999999998 C 0.31848046875 1.8781749999999997 0.32298046874999997 1.8886749999999997 0.33698046875 1.8886749999999997 C 0.34098046875 1.8886749999999997 0.34898046875 1.8846749999999997 0.34898046875 1.8801749999999997 C 0.34898046875 1.8786749999999997 0.34748046875 1.8761749999999997 0.34748046875 1.8736749999999998 C 0.34498046875 1.8701749999999997 0.34348046875 1.8661749999999997 0.34348046875 1.8611749999999998 C 0.34348046875 1.8086749999999996 0.34648046875 1.7611749999999997 0.35148046875 1.7081749999999998 C 0.35798046875 1.7071749999999997 0.37648046874999996 1.7021749999999998 0.37648046874999996 1.6936749999999998 C 0.37648046874999996 1.6906749999999997 0.37448046875 1.6841749999999998 0.37048046875 1.6841749999999998 C 0.36948046875 1.6841749999999998 0.36798046875 1.6841749999999998 0.36698046875 1.6851749999999996 L 0.35298046875 1.6866749999999997 C 0.35498046875 1.6636749999999998 0.35498046875 1.6586749999999997 0.35698046875 1.6361749999999997 C 0.35798046875 1.6221749999999997 0.36148046875 1.6071749999999998 0.36148046875 1.5931749999999996 C 0.36148046875 1.5816749999999997 0.35098046875 1.5736749999999997 0.34198046875 1.5736749999999997 C 0.33648046875 1.5736749999999997 0.33498046875 1.5776749999999997 0.33498046875 1.5831749999999998 C 0.33498046875 1.6181749999999997 0.32998046875 1.6656749999999998 0.32748046875000003 1.6891749999999996 C 0.30998046875 1.6906749999999997 0.29448046875 1.6926749999999997 0.27698046875 1.6956749999999996 M 0.41271704101562495 1.5936749999999997 C 0.400217041015625 1.6006749999999996 0.401217041015625 1.6006749999999996 0.399717041015625 1.6136749999999997 C 0.395217041015625 1.6621749999999997 0.389717041015625 1.7116749999999996 0.386217041015625 1.7601749999999996 C 0.383717041015625 1.7911749999999997 0.382717041015625 1.8231749999999998 0.382717041015625 1.8546749999999996 C 0.382717041015625 1.8616749999999997 0.384717041015625 1.8731749999999998 0.394217041015625 1.8731749999999998 C 0.41971704101562496 1.8726749999999996 0.436717041015625 1.8586749999999996 0.457717041015625 1.8556749999999997 C 0.46371704101562494 1.8551749999999998 0.46771704101562495 1.8531749999999998 0.46771704101562495 1.8471749999999998 C 0.46771704101562495 1.8371749999999998 0.456217041015625 1.8341749999999997 0.447717041015625 1.8341749999999997 C 0.436217041015625 1.8341749999999997 0.42271704101562496 1.8416749999999997 0.410717041015625 1.8451749999999998 C 0.41021704101562495 1.8101749999999996 0.41121704101562495 1.7791749999999997 0.41571704101562496 1.7451749999999997 C 0.41671704101562496 1.7381749999999996 0.41521704101562495 1.7311749999999997 0.42121704101562496 1.7296749999999996 C 0.43071704101562497 1.7271749999999997 0.445717041015625 1.7266749999999997 0.455217041015625 1.7256749999999996 C 0.458217041015625 1.7251749999999997 0.462217041015625 1.7231749999999997 0.465217041015625 1.7231749999999997 C 0.469217041015625 1.7216749999999996 0.47271704101562495 1.7161749999999998 0.47271704101562495 1.7121749999999998 C 0.47271704101562495 1.7066749999999997 0.46871704101562495 1.7051749999999997 0.46271704101562494 1.7051749999999997 L 0.42021704101562496 1.7036749999999996 C 0.42271704101562496 1.6826749999999997 0.42371704101562496 1.6456749999999998 0.42821704101562497 1.6221749999999997 C 0.42921704101562497 1.6176749999999998 0.43121704101562497 1.6141749999999997 0.43121704101562497 1.6101749999999997 C 0.43121704101562497 1.6066749999999996 0.42721704101562497 1.6031749999999998 0.42521704101562496 1.6011749999999996 L 0.468217041015625 1.5986749999999996 C 0.47371704101562495 1.5986749999999996 0.47771704101562495 1.5961749999999997 0.477217041015625 1.5901749999999997 C 0.476217041015625 1.5756749999999997 0.460217041015625 1.5726749999999998 0.445217041015625 1.5726749999999998 C 0.436217041015625 1.5726749999999998 0.42771704101562497 1.5736749999999997 0.42221704101562496 1.5741749999999997 C 0.41621704101562496 1.5746749999999996 0.41371704101562495 1.5776749999999997 0.41171704101562495 1.5826749999999996 M 0.64497802734375 1.6201749999999997 C 0.64447802734375 1.6576749999999998 0.63997802734375 1.7226749999999997 0.63797802734375 1.7596749999999997 C 0.63647802734375 1.7986749999999998 0.63097802734375 1.8086749999999996 0.63097802734375 1.8501749999999997 C 0.63097802734375 1.8586749999999996 0.63997802734375 1.8766749999999996 0.64797802734375 1.8766749999999996 C 0.6574780273437499 1.8766749999999996 0.65897802734375 1.8766749999999996 0.65897802734375 1.8681749999999997 C 0.65997802734375 1.7756749999999997 0.6684780273437501 1.6911749999999997 0.66947802734375 1.5986749999999996 C 0.66947802734375 1.5881749999999997 0.65697802734375 1.5791749999999998 0.64547802734375 1.5791749999999998 C 0.63347802734375 1.5791749999999998 0.63147802734375 1.5816749999999997 0.62847802734375 1.5921749999999997 C 0.61447802734375 1.6456749999999998 0.58747802734375 1.7391749999999997 0.57497802734375 1.7956749999999997 C 0.55797802734375 1.7241749999999998 0.5454780273437501 1.6666749999999997 0.53497802734375 1.5936749999999997 C 0.53397802734375 1.5831749999999998 0.52297802734375 1.5726749999999998 0.51297802734375 1.5726749999999998 C 0.50297802734375 1.5726749999999998 0.49847802734375 1.5746749999999996 0.49847802734375 1.5841749999999997 C 0.49847802734375 1.5936749999999997 0.49997802734375 1.6126749999999996 0.49997802734375 1.6191749999999998 C 0.49997802734375 1.6521749999999997 0.49697802734375 1.6866749999999997 0.49497802734375 1.7196749999999996 C 0.49247802734375 1.7636749999999997 0.49097802734375 1.7971749999999997 0.49147802734375 1.8376749999999997 C 0.49147802734375 1.8461749999999997 0.49147802734375 1.8801749999999997 0.50397802734375 1.8801749999999997 C 0.50647802734375 1.8801749999999997 0.51997802734375 1.8796749999999998 0.51997802734375 1.8756749999999998 C 0.51997802734375 1.8736749999999998 0.51897802734375 1.8721749999999997 0.51897802734375 1.8711749999999998 C 0.51447802734375 1.8176749999999997 0.52047802734375 1.7066749999999997 0.52297802734375 1.6841749999999998 C 0.52347802734375 1.6806749999999997 0.52347802734375 1.6761749999999997 0.52347802734375 1.6726749999999997 C 0.53397802734375 1.7161749999999998 0.55047802734375 1.8006749999999998 0.55947802734375 1.8326749999999996 C 0.56147802734375 1.8406749999999996 0.56547802734375 1.8481749999999997 0.57497802734375 1.8481749999999997 C 0.58497802734375 1.8481749999999997 0.58647802734375 1.8391749999999998 0.58647802734375 1.8316749999999997 C 0.59997802734375 1.7881749999999996 0.62297802734375 1.6976749999999998 0.64497802734375 1.6201749999999997 M 0.749230712890625 1.7231749999999997 C 0.752730712890625 1.7576749999999997 0.752230712890625 1.8036749999999997 0.758230712890625 1.8681749999999997 C 0.758730712890625 1.8766749999999996 0.761730712890625 1.8796749999999998 0.7702307128906251 1.8801749999999997 C 0.7752307128906251 1.8801749999999997 0.7872307128906251 1.8791749999999996 0.787730712890625 1.8756749999999998 C 0.787730712890625 1.8726749999999996 0.785730712890625 1.8726749999999996 0.7852307128906251 1.8691749999999998 C 0.778730712890625 1.8316749999999997 0.776730712890625 1.7536749999999997 0.775730712890625 1.7221749999999998 C 0.7752307128906251 1.7171749999999997 0.7792307128906251 1.7156749999999996 0.779730712890625 1.7101749999999998 C 0.780730712890625 1.7046749999999997 0.778730712890625 1.6986749999999997 0.774730712890625 1.6971749999999997 C 0.7732307128906251 1.6651749999999996 0.770730712890625 1.6156749999999998 0.7682307128906251 1.5836749999999997 C 0.767230712890625 1.5771749999999998 0.751230712890625 1.5731749999999998 0.745730712890625 1.5731749999999998 C 0.735230712890625 1.5736749999999997 0.730230712890625 1.5841749999999997 0.728230712890625 1.5921749999999997 C 0.711230712890625 1.6626749999999997 0.698730712890625 1.7371749999999997 0.684230712890625 1.8101749999999996 C 0.681230712890625 1.8276749999999997 0.676730712890625 1.8541749999999997 0.677730712890625 1.8711749999999998 C 0.677730712890625 1.8761749999999997 0.689230712890625 1.8821749999999997 0.693730712890625 1.8821749999999997 C 0.699730712890625 1.8816749999999998 0.702730712890625 1.8776749999999998 0.703230712890625 1.8721749999999997 C 0.7087307128906251 1.8246749999999996 0.720230712890625 1.7566749999999998 0.726230712890625 1.7241749999999998 C 0.7367307128906251 1.7236749999999996 0.739730712890625 1.7241749999999998 0.749230712890625 1.7231749999999997 M 0.748230712890625 1.6356749999999998 C 0.749230712890625 1.6541749999999997 0.7487307128906251 1.6791749999999996 0.749230712890625 1.6976749999999998 C 0.747730712890625 1.6981749999999998 0.7427307128906251 1.6986749999999997 0.738230712890625 1.6986749999999997 C 0.735230712890625 1.6986749999999997 0.732230712890625 1.6981749999999998 0.731230712890625 1.6981749999999998 C 0.7337307128906251 1.6761749999999997 0.744230712890625 1.6311749999999998 0.747730712890625 1.6141749999999997 M 0.8734921875 1.6081749999999997 C 0.8759921875000001 1.6081749999999997 0.8789921875000001 1.6081749999999997 0.8819921875000001 1.6081749999999997 C 0.8879921875000001 1.6081749999999997 0.8939921875000001 1.6081749999999997 0.8964921875 1.6081749999999997 C 0.9009921875000001 1.6086749999999996 0.9044921875 1.6046749999999996 0.9044921875 1.6001749999999997 C 0.9039921875000001 1.5941749999999997 0.9009921875000001 1.5891749999999996 0.8954921875 1.5861749999999997 C 0.8899921875000001 1.5836749999999997 0.8674921875000001 1.5821749999999997 0.8459921875 1.5821749999999997 C 0.8389921875 1.5821749999999997 0.8324921875000001 1.5821749999999997 0.8264921875000001 1.5826749999999996 C 0.8259921875 1.5826749999999996 0.8254921875000001 1.5826749999999996 0.8254921875000001 1.5826749999999996 C 0.8209921875 1.5826749999999996 0.8169921875 1.5806749999999998 0.8124921875000001 1.5806749999999998 C 0.8124921875000001 1.5806749999999998 0.8119921875 1.5806749999999998 0.8114921875000001 1.5806749999999998 C 0.8079921875 1.5806749999999998 0.8044921875000001 1.5841749999999997 0.8049921875 1.5881749999999997 C 0.8049921875 1.5906749999999996 0.8044921875000001 1.5941749999999997 0.8069921875 1.5961749999999997 C 0.8079921875 1.6036749999999997 0.8109921875 1.6101749999999997 0.8199921875 1.6096749999999997 C 0.8289921875 1.6091749999999996 0.8234921875000001 1.6086749999999996 0.8329921875 1.6081749999999997 C 0.8389921875 1.6081749999999997 0.8419921875 1.6081749999999997 0.8419921875 1.6141749999999997 C 0.8414921875000001 1.6391749999999996 0.8369921875 1.6896749999999998 0.8349921875 1.7226749999999997 C 0.8319921875 1.7646749999999998 0.8274921875000001 1.8121749999999996 0.8284921875000001 1.8551749999999998 C 0.8289921875 1.8666749999999996 0.8339921875 1.8761749999999997 0.8469921875 1.8756749999999998 C 0.8529921875 1.8756749999999998 0.8584921875 1.8721749999999997 0.8584921875 1.8656749999999998 C 0.8584921875 1.8596749999999997 0.8554921875000001 1.8546749999999996 0.8549921875000001 1.8486749999999996 C 0.8539921875 1.8086749999999996 0.8634921875000001 1.6726749999999997 0.8669921875000001 1.6381749999999997 C 0.8679921875000001 1.6281749999999997 0.8679921875000001 1.6176749999999998 0.8734921875 1.6081749999999997 M 0.9492512207031251 1.5771749999999998 C 0.9402512207031251 1.5771749999999998 0.935251220703125 1.5801749999999997 0.933251220703125 1.5896749999999997 C 0.932251220703125 1.5991749999999998 0.932251220703125 1.6071749999999998 0.932251220703125 1.6166749999999996 C 0.931251220703125 1.6926749999999997 0.927251220703125 1.7741749999999996 0.9217512207031251 1.8511749999999998 C 0.9217512207031251 1.8526749999999996 0.921251220703125 1.8546749999999996 0.922251220703125 1.8556749999999997 C 0.921251220703125 1.8616749999999997 0.925251220703125 1.8726749999999996 0.931251220703125 1.8736749999999998 C 0.934251220703125 1.8741749999999997 0.936251220703125 1.8741749999999997 0.938251220703125 1.8741749999999997 C 0.9442512207031251 1.8741749999999997 0.9452512207031251 1.8716749999999998 0.9462512207031251 1.8646749999999996 C 0.9547512207031251 1.7756749999999997 0.9547512207031251 1.6731749999999996 0.9602512207031251 1.5891749999999996 C 0.9612512207031251 1.5801749999999997 0.9547512207031251 1.5811749999999998 0.9492512207031251 1.5771749999999998 M 1.0315104980468752 1.8526749999999996 C 1.0220104980468752 1.8406749999999996 1.0155104980468752 1.8191749999999998 1.012510498046875 1.7971749999999997 C 1.0055104980468752 1.7371749999999997 1.015010498046875 1.6641749999999997 1.0440104980468752 1.6131749999999996 C 1.047510498046875 1.6066749999999996 1.051010498046875 1.5991749999999998 1.0600104980468752 1.5986749999999996 C 1.065510498046875 1.5986749999999996 1.0705104980468751 1.6056749999999997 1.075010498046875 1.6056749999999997 C 1.0820104980468752 1.6046749999999996 1.087010498046875 1.5996749999999997 1.0860104980468752 1.5936749999999997 C 1.0845104980468752 1.5831749999999998 1.0625104980468751 1.5741749999999997 1.0540104980468752 1.5746749999999996 C 1.0080104980468751 1.5781749999999997 0.9890104980468751 1.6886749999999997 0.9855104980468751 1.7236749999999996 C 0.9805104980468751 1.7656749999999997 0.9855104980468751 1.8026749999999998 0.9925104980468751 1.8296749999999997 C 0.9980104980468751 1.8526749999999996 1.010510498046875 1.8771749999999996 1.037510498046875 1.8771749999999996 C 1.055510498046875 1.8761749999999997 1.075510498046875 1.8501749999999997 1.0645104980468751 1.8391749999999998 C 1.063510498046875 1.8381749999999997 1.061010498046875 1.8341749999999997 1.0565104980468751 1.8326749999999996 C 1.049010498046875 1.8391749999999998 1.0420104980468752 1.8546749999999996 1.035010498046875 1.8546749999999996 C 1.0340104980468752 1.8546749999999996 1.0325104980468751 1.8541749999999997 1.0315104980468752 1.8526749999999996 M 1.2024816894531252 1.6066749999999996 C 1.207481689453125 1.6066749999999996 1.2129816894531251 1.6071749999999998 1.217481689453125 1.6071749999999998 C 1.230481689453125 1.6071749999999998 1.262481689453125 1.6036749999999997 1.262481689453125 1.5901749999999997 C 1.262481689453125 1.5841749999999997 1.259481689453125 1.5781749999999997 1.253981689453125 1.5781749999999997 C 1.241981689453125 1.5781749999999997 1.230481689453125 1.5796749999999997 1.2189816894531251 1.5796749999999997 C 1.207481689453125 1.5796749999999997 1.1964816894531252 1.5766749999999998 1.186981689453125 1.5766749999999998 C 1.182981689453125 1.5766749999999998 1.1764816894531251 1.5806749999999998 1.175981689453125 1.5851749999999998 C 1.1664816894531251 1.6631749999999996 1.1544816894531251 1.7406749999999998 1.1544816894531251 1.8201749999999997 C 1.1544816894531251 1.8381749999999997 1.156981689453125 1.8771749999999996 1.181981689453125 1.8771749999999996 C 1.192981689453125 1.8771749999999996 1.228481689453125 1.8596749999999997 1.2409816894531251 1.8551749999999998 C 1.246481689453125 1.8551749999999998 1.250481689453125 1.8466749999999996 1.250481689453125 1.8421749999999997 C 1.250481689453125 1.8341749999999997 1.2429816894531251 1.8336749999999997 1.236481689453125 1.8336749999999997 C 1.227981689453125 1.8336749999999997 1.193981689453125 1.8466749999999996 1.185481689453125 1.8466749999999996 C 1.181481689453125 1.8431749999999998 1.1824816894531252 1.8081749999999996 1.1824816894531252 1.8016749999999997 C 1.1824816894531252 1.7846749999999998 1.183981689453125 1.7626749999999998 1.185481689453125 1.7456749999999996 C 1.185981689453125 1.7416749999999996 1.1904816894531252 1.7406749999999998 1.194981689453125 1.7391749999999997 C 1.210481689453125 1.7336749999999996 1.225981689453125 1.7321749999999998 1.241481689453125 1.7261749999999998 C 1.2449816894531252 1.7246749999999997 1.246481689453125 1.7201749999999998 1.246481689453125 1.7171749999999997 C 1.246481689453125 1.7081749999999998 1.2449816894531252 1.7076749999999996 1.236481689453125 1.7076749999999996 C 1.219481689453125 1.7081749999999998 1.203981689453125 1.7116749999999996 1.1884816894531252 1.7116749999999996 C 1.191981689453125 1.6776749999999998 1.1964816894531252 1.6406749999999997 1.2024816894531252 1.6066749999999996 M 1.3597409667968752 1.7901749999999996 C 1.3597409667968752 1.7836749999999997 1.3582409667968751 1.7771749999999997 1.356740966796875 1.7711749999999997 C 1.351240966796875 1.7441749999999998 1.347240966796875 1.7201749999999998 1.342240966796875 1.6931749999999997 C 1.3392409667968752 1.6731749999999996 1.3352409667968752 1.6506749999999997 1.3317409667968751 1.6311749999999998 C 1.3297409667968751 1.6186749999999996 1.328740966796875 1.6056749999999997 1.3257409667968751 1.5936749999999997 C 1.3232409667968752 1.5816749999999997 1.3177409667968751 1.5791749999999998 1.306240966796875 1.5791749999999998 C 1.2932409667968752 1.5791749999999998 1.286740966796875 1.5911749999999998 1.2872409667968752 1.6096749999999997 C 1.287740966796875 1.6501749999999997 1.286240966796875 1.6906749999999997 1.284740966796875 1.7311749999999997 C 1.284240966796875 1.7536749999999997 1.2832409667968752 1.7796749999999997 1.282240966796875 1.8016749999999997 C 1.279740966796875 1.8296749999999997 1.2752409667968752 1.8516749999999997 1.280240966796875 1.8706749999999996 C 1.2812409667968752 1.8751749999999996 1.2852409667968752 1.8776749999999998 1.289740966796875 1.8776749999999998 C 1.294240966796875 1.8776749999999998 1.2997409667968751 1.8746749999999996 1.3012409667968752 1.8681749999999997 C 1.306240966796875 1.8471749999999998 1.3097409667968751 1.7006749999999997 1.3097409667968751 1.6976749999999998 C 1.310240966796875 1.6876749999999996 1.310740966796875 1.6656749999999998 1.310240966796875 1.6551749999999996 C 1.312740966796875 1.6581749999999997 1.3232409667968752 1.7256749999999996 1.324240966796875 1.7311749999999997 C 1.3252409667968752 1.7366749999999997 1.336740966796875 1.8066749999999998 1.350240966796875 1.8596749999999997 C 1.351240966796875 1.8636749999999997 1.3557409667968752 1.8671749999999998 1.3602409667968751 1.8671749999999998 C 1.3657409667968752 1.8666749999999996 1.368740966796875 1.8626749999999996 1.369240966796875 1.8571749999999998 C 1.378740966796875 1.8571749999999998 1.3842409667968751 1.8531749999999998 1.3842409667968751 1.8456749999999997 C 1.3842409667968751 1.8391749999999998 1.3822409667968751 1.8331749999999998 1.3822409667968751 1.8266749999999996 C 1.383240966796875 1.7801749999999996 1.384740966796875 1.6996749999999996 1.387240966796875 1.6536749999999998 C 1.3882409667968751 1.6361749999999997 1.3897409667968752 1.6101749999999997 1.389240966796875 1.5926749999999996 C 1.389240966796875 1.5866749999999996 1.383240966796875 1.5806749999999998 1.3762409667968751 1.5806749999999998 C 1.3742409667968751 1.5806749999999998 1.3722409667968751 1.5811749999999998 1.3702409667968751 1.5826749999999996 C 1.3642409667968751 1.5856749999999997 1.3642409667968751 1.6221749999999997 1.3642409667968751 1.6306749999999997 C 1.3637409667968752 1.6501749999999997 1.3602409667968751 1.7421749999999996 1.3597409667968752 1.7901749999999996 M 1.4479936523437502 1.7131749999999997 C 1.45149365234375 1.6936749999999998 1.4739936523437502 1.6156749999999998 1.49199365234375 1.6076749999999997 C 1.49399365234375 1.6051749999999996 1.4949936523437501 1.6021749999999997 1.4949936523437501 1.5986749999999996 C 1.4949936523437501 1.5901749999999997 1.48599365234375 1.5816749999999997 1.4789936523437501 1.5816749999999997 C 1.4739936523437502 1.5816749999999997 1.4709936523437501 1.5851749999999998 1.4684936523437502 1.5896749999999997 C 1.43299365234375 1.6411749999999996 1.41349365234375 1.7171749999999997 1.41349365234375 1.7811749999999997 C 1.41349365234375 1.8041749999999996 1.41699365234375 1.8691749999999998 1.44899365234375 1.8691749999999998 C 1.45949365234375 1.8691749999999998 1.4664936523437502 1.8616749999999997 1.4729936523437501 1.8526749999999996 C 1.4929936523437501 1.8251749999999998 1.49749365234375 1.7636749999999997 1.5009936523437502 1.7346749999999997 C 1.50149365234375 1.7306749999999997 1.52799365234375 1.7236749999999996 1.5284936523437502 1.7116749999999996 C 1.5289936523437502 1.7071749999999997 1.52799365234375 1.7056749999999996 1.5269936523437502 1.7011749999999997 C 1.5214936523437501 1.7031749999999997 1.51599365234375 1.7036749999999996 1.51149365234375 1.7051749999999997 C 1.49149365234375 1.7096749999999996 1.4744936523437502 1.7116749999999996 1.4479936523437502 1.7131749999999997 M 1.4464936523437502 1.7241749999999998 C 1.45149365234375 1.7356749999999996 1.4669936523437501 1.7361749999999998 1.4739936523437502 1.7361749999999998 C 1.4729936523437501 1.7646749999999998 1.4644936523437502 1.8206749999999996 1.4499936523437502 1.8436749999999997 C 1.4464936523437502 1.8351749999999998 1.44149365234375 1.8036749999999997 1.44149365234375 1.7861749999999996 C 1.44149365234375 1.7696749999999997 1.44299365234375 1.7396749999999996 1.4464936523437502 1.7241749999999998 M 1.5637365722656251 1.5771749999999998 C 1.5547365722656252 1.5771749999999998 1.5497365722656251 1.5801749999999997 1.547736572265625 1.5896749999999997 C 1.5467365722656252 1.5991749999999998 1.5467365722656252 1.6071749999999998 1.5467365722656252 1.6166749999999996 C 1.545736572265625 1.6926749999999997 1.541736572265625 1.7741749999999996 1.536236572265625 1.8511749999999998 C 1.536236572265625 1.8526749999999996 1.535736572265625 1.8546749999999996 1.5367365722656252 1.8556749999999997 C 1.535736572265625 1.8616749999999997 1.539736572265625 1.8726749999999996 1.545736572265625 1.8736749999999998 C 1.5487365722656252 1.8741749999999997 1.5507365722656252 1.8741749999999997 1.5527365722656252 1.8741749999999997 C 1.5587365722656252 1.8741749999999997 1.5597365722656251 1.8716749999999998 1.5607365722656252 1.8646749999999996 C 1.5692365722656252 1.7756749999999997 1.5692365722656252 1.6731749999999996 1.5747365722656252 1.5891749999999996 C 1.5757365722656251 1.5801749999999997 1.5692365722656252 1.5811749999999998 1.5637365722656251 1.5771749999999998 M 1.6794958496093753 1.7901749999999996 C 1.6794958496093753 1.7836749999999997 1.6779958496093752 1.7771749999999997 1.6764958496093751 1.7711749999999997 C 1.670995849609375 1.7441749999999998 1.666995849609375 1.7201749999999998 1.6619958496093752 1.6931749999999997 C 1.6589958496093753 1.6731749999999996 1.6549958496093753 1.6506749999999997 1.6514958496093752 1.6311749999999998 C 1.6494958496093752 1.6186749999999996 1.6484958496093751 1.6056749999999997 1.6454958496093752 1.5936749999999997 C 1.6429958496093753 1.5816749999999997 1.6374958496093752 1.5791749999999998 1.6259958496093752 1.5791749999999998 C 1.6129958496093753 1.5791749999999998 1.606495849609375 1.5911749999999998 1.6069958496093752 1.6096749999999997 C 1.6074958496093752 1.6501749999999997 1.6059958496093751 1.6906749999999997 1.604495849609375 1.7311749999999997 C 1.6039958496093751 1.7536749999999997 1.6029958496093752 1.7796749999999997 1.6019958496093751 1.8016749999999997 C 1.5994958496093752 1.8296749999999997 1.5949958496093752 1.8516749999999997 1.5999958496093751 1.8706749999999996 C 1.6009958496093752 1.8751749999999996 1.6049958496093752 1.8776749999999998 1.6094958496093752 1.8776749999999998 C 1.6139958496093751 1.8776749999999998 1.6194958496093752 1.8746749999999996 1.6209958496093753 1.8681749999999997 C 1.6259958496093752 1.8471749999999998 1.6294958496093752 1.7006749999999997 1.6294958496093752 1.6976749999999998 C 1.6299958496093752 1.6876749999999996 1.630495849609375 1.6656749999999998 1.6299958496093752 1.6551749999999996 C 1.632495849609375 1.6581749999999997 1.6429958496093753 1.7256749999999996 1.6439958496093752 1.7311749999999997 C 1.6449958496093753 1.7366749999999997 1.6564958496093751 1.8066749999999998 1.6699958496093752 1.8596749999999997 C 1.670995849609375 1.8636749999999997 1.6754958496093753 1.8671749999999998 1.6799958496093752 1.8671749999999998 C 1.6854958496093753 1.8666749999999996 1.6884958496093752 1.8626749999999996 1.688995849609375 1.8571749999999998 C 1.6984958496093752 1.8571749999999998 1.7039958496093752 1.8531749999999998 1.7039958496093752 1.8456749999999997 C 1.7039958496093752 1.8391749999999998 1.7019958496093752 1.8331749999999998 1.7019958496093752 1.8266749999999996 C 1.7029958496093751 1.7801749999999996 1.7044958496093752 1.6996749999999996 1.7069958496093751 1.6536749999999998 C 1.7079958496093752 1.6361749999999997 1.7094958496093753 1.6101749999999997 1.7089958496093751 1.5926749999999996 C 1.7089958496093751 1.5866749999999996 1.7029958496093751 1.5806749999999998 1.6959958496093752 1.5806749999999998 C 1.6939958496093752 1.5806749999999998 1.6919958496093752 1.5811749999999998 1.6899958496093752 1.5826749999999996 C 1.6839958496093752 1.5856749999999997 1.6839958496093752 1.6221749999999997 1.6839958496093752 1.6306749999999997 C 1.6834958496093753 1.6501749999999997 1.6799958496093752 1.7421749999999996 1.6794958496093753 1.7901749999999996 M 1.7602485351562502 1.5936749999999997 C 1.7477485351562503 1.6006749999999996 1.7487485351562502 1.6006749999999996 1.7472485351562501 1.6136749999999997 C 1.7427485351562502 1.6621749999999997 1.73724853515625 1.7116749999999996 1.7337485351562503 1.7601749999999996 C 1.73124853515625 1.7911749999999997 1.7302485351562502 1.8231749999999998 1.7302485351562502 1.8546749999999996 C 1.7302485351562502 1.8616749999999997 1.7322485351562502 1.8731749999999998 1.7417485351562503 1.8731749999999998 C 1.7672485351562501 1.8726749999999996 1.7842485351562503 1.8586749999999996 1.8052485351562502 1.8556749999999997 C 1.8112485351562502 1.8551749999999998 1.8152485351562502 1.8531749999999998 1.8152485351562502 1.8471749999999998 C 1.8152485351562502 1.8371749999999998 1.80374853515625 1.8341749999999997 1.7952485351562502 1.8341749999999997 C 1.78374853515625 1.8341749999999997 1.7702485351562502 1.8416749999999997 1.7582485351562502 1.8451749999999998 C 1.7577485351562503 1.8101749999999996 1.7587485351562502 1.7791749999999997 1.7632485351562501 1.7451749999999997 C 1.7642485351562502 1.7381749999999996 1.7627485351562502 1.7311749999999997 1.7687485351562502 1.7296749999999996 C 1.7782485351562503 1.7271749999999997 1.7932485351562502 1.7266749999999997 1.8027485351562502 1.7256749999999996 C 1.8057485351562501 1.7251749999999997 1.8097485351562501 1.7231749999999997 1.8127485351562502 1.7231749999999997 C 1.8167485351562502 1.7216749999999996 1.8202485351562503 1.7161749999999998 1.8202485351562503 1.7121749999999998 C 1.8202485351562503 1.7066749999999997 1.8162485351562503 1.7051749999999997 1.8102485351562503 1.7051749999999997 L 1.7677485351562503 1.7036749999999996 C 1.7702485351562502 1.6826749999999997 1.7712485351562501 1.6456749999999998 1.7757485351562503 1.6221749999999997 C 1.7767485351562502 1.6176749999999998 1.7787485351562502 1.6141749999999997 1.7787485351562502 1.6101749999999997 C 1.7787485351562502 1.6066749999999996 1.7747485351562502 1.6031749999999998 1.7727485351562502 1.6011749999999996 L 1.8157485351562501 1.5986749999999996 C 1.8212485351562502 1.5986749999999996 1.8252485351562502 1.5961749999999997 1.8247485351562502 1.5901749999999997 C 1.8237485351562501 1.5756749999999997 1.8077485351562501 1.5726749999999998 1.7927485351562502 1.5726749999999998 C 1.78374853515625 1.5726749999999998 1.7752485351562501 1.5736749999999997 1.7697485351562503 1.5741749999999997 C 1.7637485351562503 1.5746749999999996 1.7612485351562501 1.5776749999999997 1.7592485351562501 1.5826749999999996" fill="#d56a34" fill-rule="nonzero"></path></g></g><defs><clipPath id="SvgjsClipPath4936"><path d=" M -4.331133397603678 -1.0285638230192935 h 3.9311333976036784 v 3.9313026460385867 h -3.9311333976036784 Z"></path></clipPath><clipPath id="SvgjsClipPath493476470efc-a1ec-46d8-a76a-1633602b9f43"><path d=" M -4.331133397603678 -1.0285638230192935 L -0.3999999999999999 -1.0285638230192935 L -0.3999999999999999 2.902738823019293 L -4.331133397603678 2.902738823019293 Z"></path></clipPath></defs></svg>